<svg xmlns="http://www.w3.org/2000/svg" version="1.1" xmlns:xlink="http://www.w3.org/1999/xlink" xmlns:svgjs="http://svgjs.dev/svgjs" width="2000" height="1843" viewBox="0 0 2000 1843"><g transform="matrix(1,0,0,1,-1.4848356607833466,0.7475317086179984)"><svg viewBox="0 0 268 247" data-background-color="#ffffff" preserveAspectRatio="xMidYMid meet" height="1843" width="2000" xmlns="http://www.w3.org/2000/svg" xmlns:xlink="http://www.w3.org/1999/xlink"><g id="tight-bounds" transform="matrix(1,0,0,1,0.19896797854497095,-0.099973655792013)"><svg viewBox="0 0 267.6018531455399 247.2" height="247.2" width="267.6018531455399"><g><svg viewBox="0 0 267.60185314553996 247.20000000000002" height="247.2" width="267.6018531455399"><g><svg viewBox="0 0 267.60185314553996 247.20000000000002" height="247.20000000000002" width="267.60185314553996"><g id="textblocktransform"><svg viewBox="0 0 267.60185314553996 247.20000000000002" height="247.20000000000002" width="267.60185314553996" id="textblock"><g><svg viewBox="0 0 267.60185314553996 247.20000000000002" height="247.20000000000002" width="267.60185314553996"><path d="M266.975 53.02C265.717 27.36 262.132 20.227 262.132 20.227 251.124-6.202 237.386-0.506 225.044 3.292 203.255 3.446 181.553 9.091 159.814 12.119 114.185 12.581 68.165 4.986 22.762 23.717 18.497 29.464-4.425 24.846 0.759 56.304 2.117 69.39 7.074 83.913 6.923 95.922 7.602 98.026 8.546 93.202 8.949 96.23 10.358 104.39 12.66 100.541 14.547 105.365 11.918 118.246 13.805 128.971 15.604 140.21 12.433 143.135 8.37 141.749 6.546 151.449 6.357 158.479 5.338 157.145 4.218 156.837 3.401 156.632 1.752 157.402 2.029 159.608 2.973 167.152-1.078 171.514 1.463 178.904-0.286 186.91 2.671 193.838 2.268 202.511 2.218 204.255 2.495 205.744 2.935 206.154 4.885 208.361 2.042 212.672 2.344 217.342 22.347 249.262 44.048 227.195 64.542 241.872 69.863 231.608 65.863 245.516 67.989 243.36 69.65 240.846 70.857 251.263 72.732 245.362 73.021 243.668 72.581 239.665 73.612 240.435 74.153 240.846 74.632 240.743 74.707 238.382 74.82 234.841 73.826 237.048 73.562 235.201 76.418 225.861 75.713 248.081 78.393 247.158 78.267 244.438 77.487 240.538 79.085 241.051 80.67 237.151 80.72 233.918 82.13 242.693 82.18 244.592 82.431 245.926 82.834 246.85 87.237 237.305 91.615 250.237 96.232 245.926 99.063 241.205 101.78 248.492 104.649 246.696 105.655 245.259 106.674 242.693 107.643 247.004 119.506 247.928 132.15 244.079 143.397 247.158 173.452 241.41 205.57 249.518 237.26 241.923 244.733 238.998 252.495 234.841 259.779 231.506 259.779 231.506 265.68 222.371 265.68 181.316S266.938 145.393 267.126 112.703C267.315 80.013 268.196 78.679 266.938 53.02Z" opacity="1" fill="#f20000" data-fill-palette-color="tertiary"></path><g transform="matrix(1,0,0,1,55.76832000000002,26.230666666666668)"><svg width="156.06521314553993" viewBox="2.5 -35.2 28.45 35.5" height="194.7386666666667" data-palette-color="#ffffff"><path d="M12.5-12.75L12.5-0.7Q12.5 0.05 7.8 0.05L7.8 0.05 5-0.1Q2.5-0.3 2.5-0.8L2.5-0.8 2.5-34.35Q2.5-35.2 7.5-35.2 12.5-35.2 12.5-34.35L12.5-34.35 12.5-21.55 18.6-34.35Q18.95-35.05 22.6-35.05L22.6-35.05Q29.25-35.05 29.6-33.9L29.6-33.9Q29.6-33.8 29.55-33.7L29.55-33.7 20.85-18 30.95-4.05Q30.95-3.95 30-3.2L30-3.2Q27.7-1.2 24.6-0.05L24.6-0.05Q23.65 0.3 22.7 0.3L22.7 0.3 21.5 0.2Q19.9-0.2 19-1.85L19-1.85 13.3-12.75 12.5-12.75Z" opacity="1" transform="matrix(1,0,0,1,0,0)" fill="#ffffff" class="wordmark-text-0" data-fill-palette-color="quaternary" id="text-0"></path></svg></g></svg></g></svg></g></svg></g><g></g></svg></g><defs></defs></svg><rect width="267.6018531455399" height="247.2" fill="none" stroke="none" visibility="hidden"></rect></g></svg></g></svg>